# xmcd
#
# Track frame offsets:
#	150
#	19565
#	37389
#	55760
#	76185
#	94204
#	109236
#	136858
#	155038
#	177574
#	196428
#
# Disc length: 2742 seconds
#
# Revision: 1
# Processed by: cddbd v1.5.1PL2 Copyright (c) Steve Scherf et al.
# Submitted via: audiograbber 1.83.01
#
DISCID=940ab40b
DTITLE=Chris Zalez - Texas Cantina
DYEAR=2004
DGENRE=Blues
TTITLE0=I Love You Honey
TTITLE1=Knockin' Blues
TTITLE2=Justine
TTITLE3=Never Let You Go
TTITLE4=Sugar Mama
TTITLE5=All About My Girl
TTITLE6=Sittin' and Drinkin'
TTITLE7=I'm In Love
TTITLE8=Give Me A Break
TTITLE9=All My Love
TTITLE10=Something Right For Me
EXTD=
EXTT0=
EXTT1=
EXTT2=
EXTT3=
EXTT4=
EXTT5=
EXTT6=
EXTT7=
EXTT8=
EXTT9=
EXTT10=
PLAYORDER=
